<svg xmlns="http://www.w3.org/2000/svg" xmlns:xlink="http://www.w3.org/1999/xlink" width="500" zoomAndPan="magnify" viewBox="0 0 375 374.999991" height="500" preserveAspectRatio="xMidYMid meet" version="1.0"><defs><clipPath id="8b9ea6d29f"><path d="M 85.054688 226.90625 L 119.554688 226.90625 L 119.554688 261.40625 L 85.054688 261.40625 Z M 85.054688 226.90625 " clip-rule="nonzero"/></clipPath><clipPath id="b6e4979ea7"><path d="M 120 129 L 152 129 L 152 238 L 120 238 Z M 120 129 " clip-rule="nonzero"/></clipPath><clipPath id="003d706278"><path d="M 119.78125 237.074219 L 126.984375 128.5625 L 155.421875 130.449219 L 148.21875 238.960938 Z M 119.78125 237.074219 " clip-rule="nonzero"/></clipPath><clipPath id="a8514820b6"><path d="M 119.78125 237.074219 L 126.984375 128.5625 L 155.421875 130.449219 L 148.21875 238.960938 Z M 119.78125 237.074219 " clip-rule="nonzero"/></clipPath><clipPath id="217f3ca690"><path d="M 119.78125 237.074219 L 126.984375 128.5625 L 155.421875 130.449219 L 148.21875 238.960938 Z M 119.78125 237.074219 " clip-rule="nonzero"/></clipPath><clipPath id="f25b63e3b5"><path d="M 85.054688 110 L 121 110 L 121 128 L 85.054688 128 Z M 85.054688 110 " clip-rule="nonzero"/></clipPath><clipPath id="aafc513654"><path d="M 85.054688 118 L 104 118 L 104 150 L 85.054688 150 Z M 85.054688 118 " clip-rule="nonzero"/></clipPath><clipPath id="bca4d66129"><path d="M 85.054688 109.769531 L 121.054688 109.769531 L 121.054688 150.269531 L 85.054688 150.269531 Z M 85.054688 109.769531 " clip-rule="nonzero"/></clipPath></defs><rect x="-37.5" width="450" fill="#ffffff" y="-37.499999" height="449.999989" fill-opacity="1"/><rect x="-37.5" width="450" fill="#ffffff" y="-37.499999" height="449.999989" fill-opacity="1"/><g clip-path="url(#8b9ea6d29f)"><path fill="#000000" d="M 102.304688 226.90625 C 92.777344 226.90625 85.054688 234.628906 85.054688 244.15625 C 85.054688 253.683594 92.777344 261.40625 102.304688 261.40625 C 111.832031 261.40625 119.554688 253.683594 119.554688 244.15625 C 119.554688 234.628906 111.832031 226.90625 102.304688 226.90625 Z M 102.304688 232.972656 C 104.796875 232.972656 106.820312 235.359375 106.820312 238.308594 C 106.820312 241.257812 104.796875 243.648438 102.304688 243.648438 C 99.808594 243.648438 97.789062 241.257812 97.789062 238.308594 C 97.789062 235.359375 99.808594 232.972656 102.304688 232.972656 Z M 109.949219 253.996094 L 94.660156 253.996094 C 93.890625 253.996094 93.269531 253.375 93.269531 252.605469 C 93.269531 249.019531 97.316406 246.109375 102.304688 246.109375 C 107.292969 246.109375 111.335938 249.019531 111.335938 252.605469 C 111.335938 253.375 110.714844 253.996094 109.949219 253.996094 Z M 109.949219 253.996094 " fill-opacity="1" fill-rule="nonzero"/></g><g clip-path="url(#b6e4979ea7)"><g clip-path="url(#003d706278)"><g clip-path="url(#a8514820b6)"><g clip-path="url(#217f3ca690)"><path fill="#000000" d="M 128.816406 235.925781 C 128.660156 235.882812 128.503906 235.839844 128.351562 235.785156 L 127.90625 235.621094 C 127.609375 235.527344 127.335938 235.375 127.058594 235.261719 C 126.527344 234.984375 126.03125 234.695312 125.574219 234.351562 C 125.128906 234 124.703125 233.636719 124.332031 233.21875 C 123.585938 232.386719 122.984375 231.429688 122.570312 230.3125 L 122.488281 230.101562 L 122.421875 229.886719 C 122.378906 229.742188 122.328125 229.59375 122.285156 229.445312 C 122.226562 229.144531 122.125 228.832031 122.074219 228.511719 C 122.015625 228.1875 121.972656 227.855469 121.9375 227.507812 C 121.9375 227.503906 121.9375 227.5 121.9375 227.496094 C 121.898438 227.085938 121.359375 226.941406 121.136719 227.289062 C 120.925781 227.617188 120.753906 227.976562 120.613281 228.347656 C 120.472656 228.714844 120.398438 229.101562 120.320312 229.496094 C 120.285156 229.695312 120.28125 229.894531 120.261719 230.097656 L 120.242188 230.402344 C 120.238281 230.503906 120.246094 230.601562 120.25 230.707031 C 120.292969 232.339844 120.988281 233.972656 122.113281 235.210938 C 122.675781 235.835938 123.355469 236.34375 124.085938 236.746094 C 124.824219 237.140625 125.628906 237.386719 126.4375 237.511719 C 126.640625 237.53125 126.847656 237.539062 127.050781 237.554688 C 127.152344 237.558594 127.25 237.566406 127.351562 237.566406 C 127.453125 237.5625 127.554688 237.554688 127.65625 237.546875 C 127.855469 237.53125 128.054688 237.527344 128.253906 237.496094 C 128.449219 237.464844 128.644531 237.429688 128.835938 237.378906 C 129.144531 237.300781 129.449219 237.199219 129.738281 237.070312 C 130.179688 236.875 130.117188 236.222656 129.640625 236.128906 C 129.355469 236.070312 129.082031 236.003906 128.816406 235.925781 Z M 136.628906 130.8125 C 137.113281 130.777344 137.261719 130.140625 136.847656 129.890625 C 136.578125 129.726562 136.292969 129.582031 135.996094 129.460938 C 135.8125 129.390625 135.625 129.328125 135.433594 129.269531 C 135.242188 129.214844 135.046875 129.183594 134.847656 129.140625 C 134.75 129.121094 134.648438 129.097656 134.550781 129.082031 C 134.449219 129.066406 134.351562 129.066406 134.25 129.054688 C 134.046875 129.042969 133.839844 129.023438 133.636719 129.015625 C 132.820312 129.03125 131.988281 129.171875 131.207031 129.464844 C 130.429688 129.765625 129.683594 130.179688 129.046875 130.726562 C 127.765625 131.800781 126.863281 133.332031 126.605469 134.945312 C 126.589844 135.046875 126.566406 135.144531 126.554688 135.246094 L 126.535156 135.550781 C 126.527344 135.753906 126.503906 135.949219 126.515625 136.152344 C 126.542969 136.554688 126.5625 136.949219 126.652344 137.332031 C 126.742188 137.71875 126.867188 138.09375 127.03125 138.449219 C 127.207031 138.824219 127.761719 138.75 127.851562 138.347656 C 127.851562 138.34375 127.855469 138.34375 127.855469 138.339844 C 127.9375 137.996094 128.019531 137.671875 128.125 137.363281 C 128.214844 137.050781 128.355469 136.753906 128.453125 136.464844 C 128.519531 136.320312 128.589844 136.179688 128.648438 136.042969 L 128.742188 135.839844 L 128.851562 135.640625 C 129.410156 134.589844 130.132812 133.71875 130.980469 132.992188 C 131.40625 132.625 131.875 132.324219 132.363281 132.03125 C 132.863281 131.753906 133.390625 131.535156 133.957031 131.328125 C 134.242188 131.253906 134.535156 131.136719 134.839844 131.085938 L 135.304688 130.980469 C 135.464844 130.945312 135.625 130.925781 135.789062 130.902344 C 136.0625 130.859375 136.339844 130.832031 136.628906 130.8125 Z M 151.789062 185.109375 C 151.21875 193.714844 148.878906 202.144531 144.832031 210.164062 C 140.917969 217.925781 135.398438 225.324219 128.429688 232.152344 C 127.902344 232.667969 127.054688 232.660156 126.53125 232.136719 C 126.011719 231.613281 126.019531 230.769531 126.546875 230.25 C 140.230469 216.84375 148.03125 201.171875 149.109375 184.929688 C 150.199219 168.550781 144.433594 151.855469 132.4375 136.652344 C 131.980469 136.070312 132.082031 135.234375 132.664062 134.777344 C 133.246094 134.324219 134.09375 134.425781 134.550781 135.007812 C 140.65625 142.746094 145.226562 150.867188 148.128906 159.140625 C 151.132812 167.695312 152.363281 176.429688 151.789062 185.109375 " fill-opacity="1" fill-rule="nonzero"/></g></g></g></g><g clip-path="url(#f25b63e3b5)"><path fill="#f9f9f9" d="M 103.054688 110.207031 L 85.523438 118.992188 L 103.054688 127.777344 L 120.582031 118.992188 Z M 103.054688 110.207031 " fill-opacity="1" fill-rule="nonzero"/></g><path fill="#ececec" d="M 103.054688 127.777344 L 103.054688 149.742188 L 120.582031 140.957031 L 120.582031 118.992188 Z M 103.054688 127.777344 " fill-opacity="1" fill-rule="nonzero"/><g clip-path="url(#aafc513654)"><path fill="#cccccc" d="M 103.054688 127.777344 L 103.054688 149.742188 L 85.523438 140.957031 L 85.523438 118.992188 Z M 103.054688 127.777344 " fill-opacity="1" fill-rule="nonzero"/></g><g clip-path="url(#bca4d66129)"><path stroke-linecap="butt" transform="matrix(0.876497, 0, 0, 0.878525, 76.759027, 108.133066)" fill="none" stroke-linejoin="miter" d="M 30.000871 2.374075 L 9.999367 12.373969 L 9.999367 37.375926 L 30.000871 47.375819 L 49.997919 37.375926 L 49.997919 12.373969 Z M 30.000871 2.374075 " stroke="#4d4d4d" stroke-width="1" stroke-opacity="1" stroke-miterlimit="4"/></g></svg>