<svg xmlns="http://www.w3.org/2000/svg" xmlns:xlink="http://www.w3.org/1999/xlink" width="500" zoomAndPan="magnify" viewBox="0 0 375 374.999991" height="500" preserveAspectRatio="xMidYMid meet" version="1.0"><defs><clipPath id="0e34714384"><path d="M 237 207 L 273 207 L 273 242 L 237 242 Z M 237 207 " clip-rule="nonzero"/></clipPath><clipPath id="4e0826246c"><path d="M 236.273438 208.457031 L 270.660156 205.679688 L 273.441406 240.066406 L 239.050781 242.84375 Z M 236.273438 208.457031 " clip-rule="nonzero"/></clipPath><clipPath id="ca24f295cc"><path d="M 236.273438 208.457031 L 270.660156 205.679688 L 273.441406 240.066406 L 239.050781 242.84375 Z M 236.273438 208.457031 " clip-rule="nonzero"/></clipPath><clipPath id="f3be5db0c3"><path d="M 207 119 L 237 119 L 237 229 L 207 229 Z M 207 119 " clip-rule="nonzero"/></clipPath><clipPath id="8a6869c9c5"><path d="M 236.347656 119.375 L 235.949219 228.125 L 207.449219 228.019531 L 207.847656 119.269531 Z M 236.347656 119.375 " clip-rule="nonzero"/></clipPath><clipPath id="5982b24d1e"><path d="M 236.347656 119.375 L 235.949219 228.125 L 207.449219 228.019531 L 207.847656 119.269531 Z M 236.347656 119.375 " clip-rule="nonzero"/></clipPath><clipPath id="d517c07e37"><path d="M 236.347656 119.375 L 235.949219 228.125 L 207.449219 228.019531 L 207.847656 119.269531 Z M 236.347656 119.375 " clip-rule="nonzero"/></clipPath><clipPath id="3f8e17a444"><path d="M 238 99.015625 L 273.585938 99.015625 L 273.585938 118 L 238 118 Z M 238 99.015625 " clip-rule="nonzero"/></clipPath><clipPath id="a4a4284bd0"><path d="M 255 108 L 273.585938 108 L 273.585938 139 L 255 139 Z M 255 108 " clip-rule="nonzero"/></clipPath><clipPath id="32114fa978"><path d="M 237.585938 99.015625 L 273.585938 99.015625 L 273.585938 139.515625 L 237.585938 139.515625 Z M 237.585938 99.015625 " clip-rule="nonzero"/></clipPath></defs><g clip-path="url(#0e34714384)"><g clip-path="url(#4e0826246c)"><g clip-path="url(#ca24f295cc)"><path fill="#39382f" d="M 253.46875 207.066406 C 243.972656 207.835938 236.894531 216.152344 237.664062 225.648438 C 238.429688 235.144531 246.75 242.222656 256.246094 241.453125 C 265.742188 240.6875 272.816406 232.367188 272.050781 222.871094 C 271.28125 213.375 262.964844 206.300781 253.46875 207.066406 Z M 253.957031 213.113281 C 256.441406 212.910156 258.648438 215.128906 258.886719 218.070312 C 259.125 221.007812 257.300781 223.550781 254.816406 223.753906 C 252.328125 223.953125 250.121094 221.734375 249.882812 218.796875 C 249.644531 215.859375 251.46875 213.3125 253.957031 213.113281 Z M 263.269531 233.453125 L 248.027344 234.683594 C 247.265625 234.746094 246.59375 234.175781 246.53125 233.410156 C 246.242188 229.835938 250.039062 226.609375 255.015625 226.207031 C 259.988281 225.808594 264.253906 228.378906 264.539062 231.957031 C 264.601562 232.71875 264.035156 233.390625 263.269531 233.453125 Z M 263.269531 233.453125 " fill-opacity="1" fill-rule="nonzero"/></g></g></g><g clip-path="url(#f3be5db0c3)"><g clip-path="url(#8a6869c9c5)"><g clip-path="url(#5982b24d1e)"><g clip-path="url(#d517c07e37)"><path fill="#000000" d="M 227.402344 121.082031 C 227.5625 121.117188 227.71875 121.152344 227.875 121.195312 L 228.332031 121.332031 C 228.632812 121.40625 228.917969 121.542969 229.195312 121.636719 C 229.746094 121.882812 230.257812 122.140625 230.734375 122.449219 C 231.203125 122.773438 231.652344 123.109375 232.046875 123.503906 C 232.84375 124.289062 233.503906 125.207031 233.988281 126.296875 L 234.082031 126.5 L 234.164062 126.710938 C 234.214844 126.851562 234.273438 126.996094 234.328125 127.144531 C 234.40625 127.4375 234.523438 127.742188 234.59375 128.0625 C 234.675781 128.382812 234.738281 128.710938 234.792969 129.054688 C 234.792969 129.058594 234.796875 129.0625 234.796875 129.066406 C 234.859375 129.472656 235.40625 129.585938 235.609375 129.222656 C 235.796875 128.882812 235.945312 128.515625 236.0625 128.136719 C 236.179688 127.757812 236.230469 127.367188 236.285156 126.96875 C 236.308594 126.769531 236.300781 126.570312 236.304688 126.367188 L 236.304688 126.0625 C 236.304688 125.960938 236.289062 125.859375 236.277344 125.757812 C 236.132812 124.128906 235.339844 122.542969 234.136719 121.378906 C 233.539062 120.789062 232.824219 120.324219 232.070312 119.96875 C 231.308594 119.621094 230.492188 119.425781 229.675781 119.355469 C 229.472656 119.34375 229.265625 119.347656 229.0625 119.347656 C 228.960938 119.351562 228.863281 119.347656 228.761719 119.355469 C 228.660156 119.363281 228.558594 119.378906 228.460938 119.390625 C 228.261719 119.421875 228.0625 119.4375 227.867188 119.480469 C 227.671875 119.523438 227.480469 119.574219 227.292969 119.632812 C 226.988281 119.734375 226.691406 119.855469 226.414062 120 C 225.980469 120.222656 226.085938 120.867188 226.566406 120.933594 C 226.855469 120.976562 227.128906 121.023438 227.402344 121.082031 Z M 226.179688 226.480469 C 225.699219 226.542969 225.589844 227.1875 226.019531 227.414062 C 226.296875 227.5625 226.59375 227.683594 226.898438 227.789062 C 227.085938 227.847656 227.277344 227.898438 227.46875 227.945312 C 227.664062 227.988281 227.863281 228.007812 228.0625 228.039062 C 228.164062 228.050781 228.261719 228.066406 228.363281 228.078125 C 228.464844 228.085938 228.5625 228.082031 228.664062 228.085938 C 228.867188 228.085938 229.074219 228.089844 229.277344 228.085938 C 230.09375 228.019531 230.914062 227.828125 231.679688 227.488281 C 232.433594 227.136719 233.152344 226.675781 233.753906 226.09375 C 234.964844 224.9375 235.769531 223.355469 235.925781 221.726562 C 235.9375 221.628906 235.953125 221.527344 235.957031 221.425781 L 235.957031 221.121094 C 235.953125 220.917969 235.964844 220.71875 235.941406 220.519531 C 235.890625 220.117188 235.84375 219.726562 235.726562 219.347656 C 235.613281 218.96875 235.46875 218.601562 235.28125 218.257812 C 235.085938 217.894531 234.535156 218.003906 234.46875 218.410156 C 234.46875 218.414062 234.464844 218.417969 234.464844 218.417969 C 234.40625 218.765625 234.34375 219.09375 234.261719 219.410156 C 234.1875 219.730469 234.066406 220.035156 233.984375 220.328125 C 233.929688 220.476562 233.871094 220.617188 233.820312 220.761719 L 233.738281 220.972656 L 233.640625 221.175781 C 233.148438 222.261719 232.480469 223.171875 231.679688 223.949219 C 231.28125 224.34375 230.828125 224.675781 230.359375 224.996094 C 229.882812 225.304688 229.367188 225.558594 228.816406 225.796875 C 228.535156 225.890625 228.25 226.023438 227.949219 226.09375 L 227.488281 226.230469 C 227.332031 226.273438 227.175781 226.304688 227.015625 226.339844 C 226.746094 226.394531 226.46875 226.441406 226.179688 226.480469 Z M 207.65625 173.238281 C 207.6875 164.617188 209.492188 156.054688 213.03125 147.796875 C 216.449219 139.804688 221.496094 132.078125 228.023438 124.828125 C 228.515625 124.277344 229.367188 124.230469 229.917969 124.722656 C 230.46875 125.214844 230.515625 126.058594 230.023438 126.605469 C 217.203125 140.84375 210.398438 156.972656 210.335938 173.25 C 210.277344 189.664062 217.078125 205.96875 229.996094 220.390625 C 230.492188 220.941406 230.441406 221.78125 229.886719 222.273438 C 229.335938 222.761719 228.488281 222.714844 227.992188 222.164062 C 221.414062 214.820312 216.347656 207.003906 212.929688 198.925781 C 209.398438 190.578125 207.621094 181.933594 207.65625 173.238281 " fill-opacity="1" fill-rule="nonzero"/></g></g></g></g><g clip-path="url(#3f8e17a444)"><path fill="#f9f9f9" d="M 255.585938 99.453125 L 238.058594 108.238281 L 255.585938 117.023438 L 273.117188 108.238281 Z M 255.585938 99.453125 " fill-opacity="1" fill-rule="nonzero"/></g><g clip-path="url(#a4a4284bd0)"><path fill="#ececec" d="M 255.585938 117.023438 L 255.585938 138.988281 L 273.117188 130.203125 L 273.117188 108.238281 Z M 255.585938 117.023438 " fill-opacity="1" fill-rule="nonzero"/></g><path fill="#cccccc" d="M 255.585938 117.023438 L 255.585938 138.988281 L 238.058594 130.203125 L 238.058594 108.238281 Z M 255.585938 117.023438 " fill-opacity="1" fill-rule="nonzero"/><g clip-path="url(#32114fa978)"><path stroke-linecap="butt" transform="matrix(0.876497, 0, 0, 0.878525, 229.291893, 97.378184)" fill="none" stroke-linejoin="miter" d="M 29.999028 2.375185 L 10.00198 12.375079 L 10.00198 37.377036 L 29.999028 47.376929 L 50.000532 37.377036 L 50.000532 12.375079 Z M 29.999028 2.375185 " stroke="#4d4d4d" stroke-width="1" stroke-opacity="1" stroke-miterlimit="4"/></g></svg>