<svg xmlns="http://www.w3.org/2000/svg" xmlns:xlink="http://www.w3.org/1999/xlink" width="500" zoomAndPan="magnify" viewBox="0 0 375 374.999991" height="500" preserveAspectRatio="xMidYMid meet" version="1.0"><defs><clipPath id="965a21da17"><path d="M 124 172 L 157 172 L 157 281 L 124 281 Z M 124 172 " clip-rule="nonzero"/></clipPath><clipPath id="656fb22980"><path d="M 124.40625 280.40625 L 131.605469 171.898438 L 160.042969 173.785156 L 152.84375 282.296875 Z M 124.40625 280.40625 " clip-rule="nonzero"/></clipPath><clipPath id="591248b03d"><path d="M 124.40625 280.40625 L 131.605469 171.898438 L 160.042969 173.785156 L 152.84375 282.296875 Z M 124.40625 280.40625 " clip-rule="nonzero"/></clipPath><clipPath id="8d3e046e02"><path d="M 155 175 L 185 175 L 185 285 L 155 285 Z M 155 175 " clip-rule="nonzero"/></clipPath><clipPath id="9bf5f1cce5"><path d="M 184.644531 175.410156 L 184.246094 284.160156 L 155.746094 284.054688 L 156.144531 175.304688 Z M 184.644531 175.410156 " clip-rule="nonzero"/></clipPath><clipPath id="c30a39201f"><path d="M 184.644531 175.410156 L 184.246094 284.160156 L 155.746094 284.054688 L 156.144531 175.304688 Z M 184.644531 175.410156 " clip-rule="nonzero"/></clipPath><clipPath id="711858ab0a"><path d="M 131.832031 222 L 145 222 L 145 244.410156 L 131.832031 244.410156 Z M 131.832031 222 " clip-rule="nonzero"/></clipPath><clipPath id="a06e734f2d"><path d="M 145 222 L 159 222 L 159 244.410156 L 145 244.410156 Z M 145 222 " clip-rule="nonzero"/></clipPath><clipPath id="10194da85d"><path d="M 154 200.160156 L 179.832031 200.160156 L 179.832031 215 L 154 215 Z M 154 200.160156 " clip-rule="nonzero"/></clipPath><clipPath id="600c8f70e7"><path d="M 167 208 L 179.832031 208 L 179.832031 231 L 167 231 Z M 167 208 " clip-rule="nonzero"/></clipPath><clipPath id="6b73942030"><path d="M 89.675781 270.242188 L 124.175781 270.242188 L 124.175781 304.742188 L 89.675781 304.742188 Z M 89.675781 270.242188 " clip-rule="nonzero"/></clipPath><clipPath id="cdb7c0fea9"><path d="M 90 153.105469 L 125.675781 153.105469 L 125.675781 172 L 90 172 Z M 90 153.105469 " clip-rule="nonzero"/></clipPath><clipPath id="8ea2dfc1bb"><path d="M 107 162 L 125.675781 162 L 125.675781 193.605469 L 107 193.605469 Z M 107 162 " clip-rule="nonzero"/></clipPath><clipPath id="f24b22d4f2"><path d="M 90 162 L 108 162 L 108 193.605469 L 90 193.605469 Z M 90 162 " clip-rule="nonzero"/></clipPath><clipPath id="e715dad346"><path d="M 89.675781 153.105469 L 125.675781 153.105469 L 125.675781 193.605469 L 89.675781 193.605469 Z M 89.675781 153.105469 " clip-rule="nonzero"/></clipPath><clipPath id="24f371fa60"><path d="M 185 263 L 221 263 L 221 298 L 185 298 Z M 185 263 " clip-rule="nonzero"/></clipPath><clipPath id="736bd589ed"><path d="M 184.570312 264.492188 L 218.960938 261.714844 L 221.738281 296.101562 L 187.351562 298.878906 Z M 184.570312 264.492188 " clip-rule="nonzero"/></clipPath><clipPath id="f8c7b9d834"><path d="M 184.570312 264.492188 L 218.960938 261.714844 L 221.738281 296.101562 L 187.351562 298.878906 Z M 184.570312 264.492188 " clip-rule="nonzero"/></clipPath><clipPath id="4d62002e87"><path d="M 186 155.050781 L 221.886719 155.050781 L 221.886719 174 L 186 174 Z M 186 155.050781 " clip-rule="nonzero"/></clipPath><clipPath id="9cef2a34f6"><path d="M 203 164 L 221.886719 164 L 221.886719 195.550781 L 203 195.550781 Z M 203 164 " clip-rule="nonzero"/></clipPath><clipPath id="548868ea00"><path d="M 186 164 L 204 164 L 204 195.550781 L 186 195.550781 Z M 186 164 " clip-rule="nonzero"/></clipPath><clipPath id="12d70d9bd2"><path d="M 185.886719 155.050781 L 221.886719 155.050781 L 221.886719 195.550781 L 185.886719 195.550781 Z M 185.886719 155.050781 " clip-rule="nonzero"/></clipPath></defs><g clip-path="url(#965a21da17)"><g clip-path="url(#656fb22980)"><g clip-path="url(#591248b03d)"><path fill="#737373" d="M 133.441406 279.261719 C 133.28125 279.21875 133.128906 279.175781 132.972656 279.121094 L 132.527344 278.957031 C 132.230469 278.863281 131.957031 278.710938 131.683594 278.597656 C 131.148438 278.320312 130.652344 278.027344 130.195312 277.6875 C 129.75 277.335938 129.324219 276.972656 128.953125 276.554688 C 128.207031 275.722656 127.609375 274.765625 127.195312 273.648438 L 127.109375 273.4375 L 127.042969 273.222656 C 127.003906 273.078125 126.949219 272.929688 126.90625 272.78125 C 126.847656 272.480469 126.746094 272.167969 126.695312 271.847656 C 126.636719 271.523438 126.597656 271.191406 126.558594 270.84375 C 126.5625 270.839844 126.558594 270.835938 126.558594 270.832031 C 126.523438 270.421875 125.980469 270.277344 125.757812 270.625 C 125.546875 270.953125 125.375 271.3125 125.238281 271.683594 C 125.097656 272.050781 125.023438 272.4375 124.941406 272.832031 C 124.90625 273.03125 124.902344 273.230469 124.882812 273.433594 L 124.863281 273.738281 C 124.859375 273.839844 124.871094 273.9375 124.871094 274.042969 C 124.914062 275.675781 125.609375 277.308594 126.734375 278.546875 C 127.296875 279.171875 127.980469 279.679688 128.707031 280.082031 C 129.449219 280.476562 130.25 280.722656 131.058594 280.847656 C 131.261719 280.867188 131.46875 280.875 131.671875 280.890625 C 131.773438 280.894531 131.871094 280.902344 131.972656 280.902344 C 132.074219 280.898438 132.175781 280.890625 132.277344 280.882812 C 132.480469 280.867188 132.675781 280.863281 132.875 280.832031 C 133.070312 280.800781 133.265625 280.765625 133.457031 280.714844 C 133.765625 280.636719 134.070312 280.535156 134.359375 280.40625 C 134.800781 280.210938 134.738281 279.558594 134.261719 279.464844 C 133.980469 279.40625 133.707031 279.339844 133.441406 279.261719 Z M 141.25 174.148438 C 141.738281 174.113281 141.886719 173.476562 141.472656 173.226562 C 141.203125 173.058594 140.914062 172.917969 140.617188 172.796875 C 140.433594 172.726562 140.246094 172.664062 140.054688 172.605469 C 139.863281 172.550781 139.667969 172.519531 139.472656 172.476562 C 139.371094 172.457031 139.273438 172.433594 139.171875 172.417969 C 139.074219 172.402344 138.972656 172.398438 138.871094 172.390625 C 138.667969 172.378906 138.464844 172.359375 138.257812 172.351562 C 137.441406 172.367188 136.613281 172.507812 135.828125 172.800781 C 135.050781 173.101562 134.308594 173.515625 133.667969 174.0625 C 132.390625 175.136719 131.484375 176.667969 131.226562 178.28125 C 131.210938 178.382812 131.1875 178.480469 131.179688 178.582031 L 131.15625 178.886719 C 131.148438 179.089844 131.125 179.285156 131.136719 179.488281 C 131.164062 179.890625 131.1875 180.285156 131.277344 180.667969 C 131.367188 181.054688 131.488281 181.429688 131.652344 181.785156 C 131.828125 182.160156 132.382812 182.085938 132.476562 181.683594 C 132.476562 181.679688 132.476562 181.679688 132.476562 181.675781 C 132.558594 181.332031 132.644531 181.007812 132.746094 180.699219 C 132.835938 180.386719 132.976562 180.089844 133.078125 179.800781 C 133.140625 179.65625 133.210938 179.515625 133.269531 179.378906 L 133.367188 179.175781 L 133.476562 178.976562 C 134.035156 177.925781 134.757812 177.054688 135.605469 176.328125 C 136.027344 175.960938 136.5 175.660156 136.988281 175.367188 C 137.484375 175.089844 138.015625 174.871094 138.578125 174.664062 C 138.867188 174.589844 139.160156 174.472656 139.464844 174.421875 L 139.929688 174.316406 C 140.085938 174.28125 140.246094 174.261719 140.410156 174.238281 C 140.683594 174.195312 140.960938 174.167969 141.25 174.148438 Z M 156.410156 228.445312 C 155.839844 237.050781 153.5 245.480469 149.453125 253.5 C 145.539062 261.261719 140.023438 268.660156 133.054688 275.488281 C 132.527344 276.003906 131.675781 275.996094 131.15625 275.472656 C 130.636719 274.949219 130.640625 274.101562 131.167969 273.585938 C 144.851562 260.179688 152.65625 244.507812 153.734375 228.265625 C 154.820312 211.886719 149.054688 195.191406 137.0625 179.988281 C 136.601562 179.40625 136.707031 178.570312 137.289062 178.113281 C 137.871094 177.660156 138.714844 177.761719 139.171875 178.34375 C 145.277344 186.082031 149.847656 194.203125 152.753906 202.476562 C 155.757812 211.03125 156.988281 219.765625 156.410156 228.445312 " fill-opacity="1" fill-rule="nonzero"/></g></g></g><g clip-path="url(#8d3e046e02)"><g clip-path="url(#9bf5f1cce5)"><g clip-path="url(#c30a39201f)"><path fill="#737373" d="M 175.699219 177.117188 C 175.859375 177.152344 176.015625 177.1875 176.171875 177.230469 L 176.628906 177.367188 C 176.929688 177.441406 177.214844 177.578125 177.496094 177.671875 C 178.042969 177.917969 178.558594 178.175781 179.035156 178.488281 C 179.5 178.808594 179.949219 179.144531 180.347656 179.539062 C 181.140625 180.324219 181.800781 181.242188 182.285156 182.332031 L 182.382812 182.535156 L 182.460938 182.746094 C 182.511719 182.886719 182.570312 183.03125 182.625 183.179688 C 182.703125 183.472656 182.824219 183.777344 182.894531 184.097656 C 182.972656 184.417969 183.035156 184.746094 183.09375 185.089844 C 183.09375 185.09375 183.09375 185.097656 183.09375 185.101562 C 183.15625 185.511719 183.707031 185.621094 183.90625 185.257812 C 184.09375 184.917969 184.246094 184.550781 184.359375 184.171875 C 184.476562 183.792969 184.527344 183.402344 184.582031 183.003906 C 184.605469 182.804688 184.597656 182.605469 184.601562 182.402344 L 184.605469 182.097656 C 184.601562 181.996094 184.585938 181.894531 184.578125 181.792969 C 184.429688 180.164062 183.636719 178.578125 182.433594 177.414062 C 181.835938 176.824219 181.121094 176.359375 180.371094 176.003906 C 179.609375 175.65625 178.789062 175.460938 177.976562 175.390625 C 177.769531 175.378906 177.566406 175.386719 177.363281 175.382812 C 177.261719 175.386719 177.160156 175.382812 177.058594 175.390625 C 176.957031 175.398438 176.859375 175.414062 176.757812 175.425781 C 176.558594 175.457031 176.359375 175.472656 176.164062 175.515625 C 175.972656 175.558594 175.777344 175.609375 175.589844 175.667969 C 175.285156 175.769531 174.992188 175.890625 174.710938 176.035156 C 174.28125 176.257812 174.382812 176.902344 174.863281 176.96875 C 175.152344 177.011719 175.429688 177.058594 175.699219 177.117188 Z M 174.480469 282.515625 C 173.996094 282.582031 173.886719 283.222656 174.316406 283.449219 C 174.597656 283.597656 174.890625 283.722656 175.195312 283.824219 C 175.382812 283.886719 175.574219 283.933594 175.769531 283.980469 C 175.964844 284.023438 176.160156 284.042969 176.359375 284.074219 C 176.460938 284.085938 176.5625 284.101562 176.660156 284.113281 C 176.761719 284.121094 176.863281 284.117188 176.964844 284.121094 C 177.167969 284.121094 177.371094 284.128906 177.578125 284.121094 C 178.394531 284.054688 179.210938 283.863281 179.976562 283.523438 C 180.730469 283.171875 181.449219 282.714844 182.050781 282.128906 C 183.261719 280.972656 184.066406 279.390625 184.226562 277.765625 C 184.234375 277.664062 184.25 277.5625 184.253906 277.460938 L 184.257812 277.15625 C 184.253906 276.953125 184.261719 276.753906 184.238281 276.554688 C 184.1875 276.15625 184.140625 275.761719 184.027344 275.386719 C 183.914062 275.003906 183.765625 274.636719 183.578125 274.292969 C 183.382812 273.933594 182.832031 274.039062 182.765625 274.445312 C 182.765625 274.449219 182.765625 274.453125 182.765625 274.457031 C 182.703125 274.800781 182.640625 275.128906 182.558594 275.449219 C 182.488281 275.765625 182.363281 276.070312 182.285156 276.363281 C 182.230469 276.511719 182.167969 276.65625 182.117188 276.796875 L 182.035156 277.007812 L 181.9375 277.210938 C 181.445312 278.296875 180.78125 279.210938 179.980469 279.988281 C 179.578125 280.378906 179.128906 280.710938 178.660156 281.03125 C 178.179688 281.339844 177.664062 281.59375 177.113281 281.835938 C 176.832031 281.925781 176.546875 282.058594 176.246094 282.128906 L 175.789062 282.265625 C 175.632812 282.308594 175.476562 282.339844 175.3125 282.375 C 175.042969 282.429688 174.765625 282.476562 174.480469 282.515625 Z M 155.953125 229.273438 C 155.984375 220.652344 157.792969 212.089844 161.328125 203.832031 C 164.75 195.839844 169.792969 188.113281 176.320312 180.863281 C 176.816406 180.3125 177.664062 180.265625 178.214844 180.757812 C 178.769531 181.25 178.816406 182.09375 178.320312 182.640625 C 165.503906 196.878906 158.695312 213.007812 158.636719 229.285156 C 158.574219 245.703125 165.375 262.003906 178.296875 276.425781 C 178.789062 276.976562 178.738281 277.820312 178.1875 278.308594 C 177.632812 278.800781 176.785156 278.75 176.292969 278.199219 C 169.714844 270.859375 164.644531 263.039062 161.226562 254.960938 C 157.695312 246.613281 155.921875 237.972656 155.953125 229.273438 " fill-opacity="1" fill-rule="nonzero"/></g></g></g><g clip-path="url(#711858ab0a)"><path fill="#39382f" d="M 144.425781 229.882812 L 144.425781 244.402344 L 131.832031 237.140625 L 131.832031 222.625 Z M 144.425781 229.882812 " fill-opacity="1" fill-rule="nonzero"/></g><g clip-path="url(#a06e734f2d)"><path fill="#39382f" d="M 158.0625 222.621094 L 158.0625 237.140625 L 145.464844 244.398438 L 145.464844 229.882812 Z M 158.0625 222.621094 " fill-opacity="1" fill-rule="nonzero"/></g><path fill="#39382f" d="M 157.542969 221.726562 L 144.945312 228.984375 L 132.347656 221.726562 L 144.945312 214.46875 Z M 157.542969 221.726562 " fill-opacity="1" fill-rule="nonzero"/><path fill="#39382f" d="M 166.203125 215.585938 L 166.203125 230.105469 L 159.101562 226.011719 L 159.101562 221.726562 C 159.101562 221.726562 159.101562 221.707031 159.101562 221.699219 C 159.101562 221.691406 159.101562 221.644531 159.101562 221.617188 C 159.101562 221.605469 159.101562 221.589844 159.101562 221.574219 C 159.09375 221.546875 159.082031 221.519531 159.070312 221.492188 C 159.058594 221.472656 159.046875 221.453125 159.035156 221.4375 C 159.019531 221.414062 159.003906 221.394531 158.988281 221.371094 L 158.949219 221.339844 C 158.929688 221.320312 158.910156 221.308594 158.890625 221.292969 L 158.84375 221.273438 L 153.605469 218.257812 L 153.605469 208.328125 Z M 166.203125 215.585938 " fill-opacity="1" fill-rule="nonzero"/><g clip-path="url(#10194da85d)"><path fill="#39382f" d="M 179.320312 207.429688 L 166.722656 214.6875 L 154.125 207.429688 L 166.722656 200.167969 Z M 179.320312 207.429688 " fill-opacity="1" fill-rule="nonzero"/></g><g clip-path="url(#600c8f70e7)"><path fill="#39382f" d="M 179.839844 208.328125 L 179.839844 222.84375 L 167.242188 230.105469 L 167.242188 215.585938 Z M 179.839844 208.328125 " fill-opacity="1" fill-rule="nonzero"/></g><g clip-path="url(#6b73942030)"><path fill="#39382f" d="M 106.925781 270.242188 C 97.398438 270.242188 89.675781 277.964844 89.675781 287.492188 C 89.675781 297.019531 97.398438 304.742188 106.925781 304.742188 C 116.453125 304.742188 124.175781 297.019531 124.175781 287.492188 C 124.175781 277.964844 116.453125 270.242188 106.925781 270.242188 Z M 106.925781 276.308594 C 109.421875 276.308594 111.441406 278.695312 111.441406 281.644531 C 111.441406 284.59375 109.421875 286.984375 106.925781 286.984375 C 104.433594 286.984375 102.410156 284.59375 102.410156 281.644531 C 102.410156 278.695312 104.433594 276.308594 106.925781 276.308594 Z M 114.570312 297.332031 L 99.28125 297.332031 C 98.515625 297.332031 97.894531 296.710938 97.894531 295.941406 C 97.894531 292.355469 101.9375 289.445312 106.925781 289.445312 C 111.914062 289.445312 115.960938 292.355469 115.960938 295.941406 C 115.960938 296.710938 115.339844 297.332031 114.570312 297.332031 Z M 114.570312 297.332031 " fill-opacity="1" fill-rule="nonzero"/></g><g clip-path="url(#cdb7c0fea9)"><path fill="#f9f9f9" d="M 107.675781 153.542969 L 90.148438 162.328125 L 107.675781 171.113281 L 125.207031 162.328125 Z M 107.675781 153.542969 " fill-opacity="1" fill-rule="nonzero"/></g><g clip-path="url(#8ea2dfc1bb)"><path fill="#ececec" d="M 107.675781 171.113281 L 107.675781 193.078125 L 125.207031 184.292969 L 125.207031 162.328125 Z M 107.675781 171.113281 " fill-opacity="1" fill-rule="nonzero"/></g><g clip-path="url(#f24b22d4f2)"><path fill="#cccccc" d="M 107.675781 171.113281 L 107.675781 193.078125 L 90.148438 184.292969 L 90.148438 162.328125 Z M 107.675781 171.113281 " fill-opacity="1" fill-rule="nonzero"/></g><g clip-path="url(#e715dad346)"><path stroke-linecap="butt" transform="matrix(0.876497, 0, 0, 0.878525, 81.381525, 151.469052)" fill="none" stroke-linejoin="miter" d="M 29.999269 2.37402 L 10.002221 12.373913 L 10.002221 37.37587 L 29.999269 47.375764 L 50.000773 37.37587 L 50.000773 12.373913 Z M 29.999269 2.37402 " stroke="#4d4d4d" stroke-width="1" stroke-opacity="1" stroke-miterlimit="4"/></g><g clip-path="url(#24f371fa60)"><g clip-path="url(#736bd589ed)"><g clip-path="url(#f8c7b9d834)"><path fill="#39382f" d="M 201.765625 263.101562 C 192.269531 263.871094 185.195312 272.191406 185.960938 281.6875 C 186.726562 291.183594 195.046875 298.257812 204.542969 297.492188 C 214.039062 296.722656 221.117188 288.402344 220.347656 278.90625 C 219.582031 269.410156 211.261719 262.335938 201.765625 263.101562 Z M 202.253906 269.148438 C 204.742188 268.945312 206.949219 271.167969 207.1875 274.105469 C 207.421875 277.042969 205.601562 279.589844 203.113281 279.789062 C 200.628906 279.988281 198.417969 277.769531 198.183594 274.832031 C 197.945312 271.894531 199.765625 269.347656 202.253906 269.148438 Z M 211.566406 289.488281 L 196.328125 290.71875 C 195.5625 290.78125 194.894531 290.210938 194.832031 289.445312 C 194.542969 285.871094 198.339844 282.644531 203.3125 282.246094 C 208.285156 281.84375 212.550781 284.414062 212.839844 287.992188 C 212.902344 288.753906 212.332031 289.425781 211.566406 289.488281 Z M 211.566406 289.488281 " fill-opacity="1" fill-rule="nonzero"/></g></g></g><g clip-path="url(#4d62002e87)"><path fill="#f9f9f9" d="M 203.886719 155.488281 L 186.355469 164.273438 L 203.886719 173.058594 L 221.414062 164.273438 Z M 203.886719 155.488281 " fill-opacity="1" fill-rule="nonzero"/></g><g clip-path="url(#9cef2a34f6)"><path fill="#ececec" d="M 203.886719 173.058594 L 203.886719 195.023438 L 221.414062 186.238281 L 221.414062 164.273438 Z M 203.886719 173.058594 " fill-opacity="1" fill-rule="nonzero"/></g><g clip-path="url(#548868ea00)"><path fill="#cccccc" d="M 203.886719 173.058594 L 203.886719 195.023438 L 186.355469 186.238281 L 186.355469 164.273438 Z M 203.886719 173.058594 " fill-opacity="1" fill-rule="nonzero"/></g><g clip-path="url(#12d70d9bd2)"><path stroke-linecap="butt" transform="matrix(0.876497, 0, 0, 0.878525, 177.590165, 153.414014)" fill="none" stroke-linejoin="miter" d="M 30.00189 2.374419 L 10.000386 12.374312 L 10.000386 37.376269 L 30.00189 47.376163 L 49.998938 37.376269 L 49.998938 12.374312 Z M 30.00189 2.374419 " stroke="#4d4d4d" stroke-width="1" stroke-opacity="1" stroke-miterlimit="4"/></g></svg>