<svg xmlns="http://www.w3.org/2000/svg" xmlns:xlink="http://www.w3.org/1999/xlink" width="500" zoomAndPan="magnify" viewBox="0 0 375 374.999991" height="500" preserveAspectRatio="xMidYMid meet" version="1.0"><defs><clipPath id="c08c6751ce"><path d="M 63 55 L 297 55 L 297 282 L 63 282 Z M 63 55 " clip-rule="nonzero"/></clipPath><clipPath id="7843840f29"><path d="M 22.128906 149.421875 L 181.125 9.949219 L 337.410156 188.121094 L 178.414062 327.589844 Z M 22.128906 149.421875 " clip-rule="nonzero"/></clipPath><clipPath id="aa7a9e1279"><path d="M 22.128906 149.421875 L 181.125 9.949219 L 337.410156 188.121094 L 178.414062 327.589844 Z M 22.128906 149.421875 " clip-rule="nonzero"/></clipPath><clipPath id="eaeb391d6d"><path d="M 22.128906 149.421875 L 181.125 9.949219 L 337.410156 188.121094 L 178.414062 327.589844 Z M 22.128906 149.421875 " clip-rule="nonzero"/></clipPath><clipPath id="8cda9773b3"><path d="M 22.203125 149.507812 L 181.21875 10.019531 L 337.355469 188.019531 L 178.335938 327.503906 Z M 22.203125 149.507812 " clip-rule="nonzero"/></clipPath><clipPath id="18fef216ce"><path d="M 22.203125 149.507812 L 181.195312 10.039062 L 337.332031 188.035156 L 178.335938 327.503906 Z M 22.203125 149.507812 " clip-rule="nonzero"/></clipPath><clipPath id="9c5364e1c0"><path d="M 112.210938 210.066406 L 146.710938 210.066406 L 146.710938 244.566406 L 112.210938 244.566406 Z M 112.210938 210.066406 " clip-rule="nonzero"/></clipPath><clipPath id="2b30d148d7"><path d="M 112.210938 99 L 148 99 L 148 117 L 112.210938 117 Z M 112.210938 99 " clip-rule="nonzero"/></clipPath><clipPath id="c8bbb9c585"><path d="M 112.210938 108 L 131 108 L 131 139 L 112.210938 139 Z M 112.210938 108 " clip-rule="nonzero"/></clipPath><clipPath id="ff7ad6cfd7"><path d="M 112.210938 98.789062 L 148.210938 98.789062 L 148.210938 139.289062 L 112.210938 139.289062 Z M 112.210938 98.789062 " clip-rule="nonzero"/></clipPath><clipPath id="a1ede36424"><path d="M 208 208 L 243 208 L 243 244 L 208 244 Z M 208 208 " clip-rule="nonzero"/></clipPath><clipPath id="4895a70429"><path d="M 207.105469 210.175781 L 241.496094 207.398438 L 244.273438 241.789062 L 209.882812 244.566406 Z M 207.105469 210.175781 " clip-rule="nonzero"/></clipPath><clipPath id="73911f4a19"><path d="M 207.105469 210.175781 L 241.496094 207.398438 L 244.273438 241.789062 L 209.882812 244.566406 Z M 207.105469 210.175781 " clip-rule="nonzero"/></clipPath><clipPath id="009a0dbe45"><path d="M 208.417969 101 L 244 101 L 244 119 L 208.417969 119 Z M 208.417969 101 " clip-rule="nonzero"/></clipPath><clipPath id="69399da8ac"><path d="M 208.417969 109 L 227 109 L 227 141 L 208.417969 141 Z M 208.417969 109 " clip-rule="nonzero"/></clipPath><clipPath id="0690864e59"><path d="M 208.417969 100.734375 L 244.417969 100.734375 L 244.417969 141.234375 L 208.417969 141.234375 Z M 208.417969 100.734375 " clip-rule="nonzero"/></clipPath><clipPath id="12e6760026"><path d="M 166.835938 162 L 194.585938 162 L 194.585938 192.671875 L 166.835938 192.671875 Z M 166.835938 162 " clip-rule="nonzero"/></clipPath></defs><g clip-path="url(#c08c6751ce)"><g clip-path="url(#7843840f29)"><g clip-path="url(#aa7a9e1279)"><g clip-path="url(#eaeb391d6d)"><g clip-path="url(#8cda9773b3)"><g clip-path="url(#18fef216ce)"><path fill="#100f0d" d="M 95.625 91.296875 L 95.636719 91.292969 Z M 108.980469 78.140625 C 103.386719 80.859375 98.984375 85.722656 96.914062 91.746094 L 67.226562 178.035156 C 64.472656 186.046875 66.226562 195.003906 71.800781 201.410156 L 132.15625 270.726562 C 137.699219 277.09375 146.28125 280.070312 154.554688 278.496094 L 244.65625 261.355469 C 252.976562 259.773438 259.863281 253.8125 262.621094 245.796875 L 292.304688 159.507812 C 295.0625 151.492188 293.308594 142.539062 287.734375 136.132812 L 227.375 66.816406 C 221.835938 60.449219 213.253906 57.472656 204.976562 59.046875 L 114.878906 76.1875 C 112.808594 76.582031 110.832031 77.246094 108.980469 78.140625 Z M 251.742188 261.859375 C 249.679688 262.859375 247.476562 263.597656 245.171875 264.035156 L 155.074219 281.175781 C 145.847656 282.929688 136.28125 279.613281 130.105469 272.515625 L 69.746094 203.199219 C 63.53125 196.058594 61.574219 186.074219 64.648438 177.140625 L 94.335938 90.851562 C 97.40625 81.917969 105.082031 75.273438 114.359375 73.507812 L 204.460938 56.363281 C 213.6875 54.613281 223.253906 57.929688 229.429688 65.023438 L 289.789062 134.34375 C 296.003906 141.484375 297.957031 151.46875 294.882812 160.402344 L 265.199219 246.691406 C 262.886719 253.40625 257.980469 258.828125 251.742188 261.859375 " fill-opacity="1" fill-rule="nonzero"/></g></g></g></g></g></g><g clip-path="url(#9c5364e1c0)"><path fill="#39382f" d="M 129.460938 210.066406 C 119.933594 210.066406 112.210938 217.789062 112.210938 227.316406 C 112.210938 236.84375 119.933594 244.566406 129.460938 244.566406 C 138.988281 244.566406 146.710938 236.84375 146.710938 227.316406 C 146.710938 217.789062 138.988281 210.066406 129.460938 210.066406 Z M 129.460938 216.128906 C 131.957031 216.128906 133.976562 218.519531 133.976562 221.46875 C 133.976562 224.414062 131.957031 226.804688 129.460938 226.804688 C 126.964844 226.804688 124.945312 224.414062 124.945312 221.46875 C 124.945312 218.519531 126.964844 216.128906 129.460938 216.128906 Z M 137.105469 237.152344 L 121.816406 237.152344 C 121.050781 237.152344 120.425781 236.53125 120.425781 235.765625 C 120.425781 232.175781 124.472656 229.269531 129.460938 229.269531 C 134.449219 229.269531 138.496094 232.175781 138.496094 235.765625 C 138.496094 236.53125 137.875 237.152344 137.105469 237.152344 Z M 137.105469 237.152344 " fill-opacity="1" fill-rule="nonzero"/></g><g clip-path="url(#2b30d148d7)"><path fill="#f9f9f9" d="M 130.210938 99.230469 L 112.679688 108.015625 L 130.210938 116.800781 L 147.742188 108.015625 Z M 130.210938 99.230469 " fill-opacity="1" fill-rule="nonzero"/></g><path fill="#ececec" d="M 130.210938 116.800781 L 130.210938 138.761719 L 147.742188 129.976562 L 147.742188 108.015625 Z M 130.210938 116.800781 " fill-opacity="1" fill-rule="nonzero"/><g clip-path="url(#c8bbb9c585)"><path fill="#cccccc" d="M 130.210938 116.800781 L 130.210938 138.761719 L 112.679688 129.976562 L 112.679688 108.015625 Z M 130.210938 116.800781 " fill-opacity="1" fill-rule="nonzero"/></g><g clip-path="url(#ff7ad6cfd7)"><path stroke-linecap="butt" transform="matrix(0.876497, 0, 0, 0.878525, 103.916196, 97.15465)" fill="none" stroke-linejoin="miter" d="M 29.999822 2.376184 L 9.998318 12.376078 L 9.998318 37.373588 L 29.999822 47.373482 L 50.001327 37.373588 L 50.001327 12.376078 Z M 29.999822 2.376184 " stroke="#4d4d4d" stroke-width="1" stroke-opacity="1" stroke-miterlimit="4"/></g><g clip-path="url(#a1ede36424)"><g clip-path="url(#4895a70429)"><g clip-path="url(#73911f4a19)"><path fill="#39382f" d="M 224.300781 208.789062 C 214.804688 209.554688 207.726562 217.875 208.496094 227.371094 C 209.261719 236.867188 217.582031 243.945312 227.078125 243.175781 C 236.574219 242.410156 243.652344 234.089844 242.882812 224.59375 C 242.117188 215.097656 233.796875 208.019531 224.300781 208.789062 Z M 224.789062 214.832031 C 227.273438 214.632812 229.484375 216.851562 229.71875 219.789062 C 229.957031 222.730469 228.132812 225.273438 225.648438 225.472656 C 223.160156 225.675781 220.953125 223.457031 220.714844 220.519531 C 220.480469 217.578125 222.300781 215.035156 224.789062 214.832031 Z M 234.101562 235.171875 L 218.859375 236.402344 C 218.097656 236.464844 217.425781 235.894531 217.367188 235.132812 C 217.078125 231.554688 220.875 228.332031 225.847656 227.929688 C 230.820312 227.527344 235.085938 230.101562 235.375 233.675781 C 235.4375 234.441406 234.867188 235.109375 234.101562 235.171875 Z M 234.101562 235.171875 " fill-opacity="1" fill-rule="nonzero"/></g></g></g><g clip-path="url(#009a0dbe45)"><path fill="#f9f9f9" d="M 226.417969 101.175781 L 208.890625 109.960938 L 226.417969 118.746094 L 243.949219 109.960938 Z M 226.417969 101.175781 " fill-opacity="1" fill-rule="nonzero"/></g><path fill="#ececec" d="M 226.417969 118.746094 L 226.417969 140.707031 L 243.949219 131.921875 L 243.949219 109.960938 Z M 226.417969 118.746094 " fill-opacity="1" fill-rule="nonzero"/><g clip-path="url(#69399da8ac)"><path fill="#cccccc" d="M 226.417969 118.746094 L 226.417969 140.707031 L 208.890625 131.921875 L 208.890625 109.960938 Z M 226.417969 118.746094 " fill-opacity="1" fill-rule="nonzero"/></g><g clip-path="url(#0690864e59)"><path stroke-linecap="butt" transform="matrix(0.876497, 0, 0, 0.878525, 200.124819, 99.09961)" fill="none" stroke-linejoin="miter" d="M 29.998006 2.376585 L 10.000958 12.376479 L 10.000958 37.373989 L 29.998006 47.373883 L 49.99951 37.373989 L 49.99951 12.376479 Z M 29.998006 2.376585 " stroke="#4d4d4d" stroke-width="1" stroke-opacity="1" stroke-miterlimit="4"/></g><g clip-path="url(#12e6760026)"><path fill="#009688" d="M 192.921875 186.136719 L 187.648438 189.136719 L 182.375 192.132812 C 181.457031 192.65625 179.964844 192.65625 179.046875 192.132812 L 173.773438 189.136719 L 168.5 186.136719 C 167.582031 185.613281 166.835938 184.339844 166.835938 183.292969 L 166.835938 171.296875 C 166.835938 170.253906 167.582031 168.980469 168.5 168.457031 L 173.773438 165.457031 L 179.046875 162.460938 C 179.964844 161.9375 181.457031 161.9375 182.375 162.460938 L 187.648438 165.457031 L 192.921875 168.457031 C 193.839844 168.980469 194.585938 170.253906 194.585938 171.296875 L 194.585938 183.292969 C 194.585938 184.339844 193.839844 185.613281 192.921875 186.136719 Z M 192.921875 186.136719 " fill-opacity="1" fill-rule="nonzero"/></g><path stroke-linecap="butt" transform="matrix(0.523776, -0.546677, 0.541552, 0.518865, 146.871295, 214.170572)" fill="none" stroke-linejoin="miter" d="M -0.00101942 0.498316 L 39.128851 0.499841 " stroke="#000000" stroke-width="1" stroke-opacity="1" stroke-miterlimit="4"/><path stroke-linecap="round" transform="matrix(0.523776, -0.546677, 0.541552, 0.518865, 167.898992, 192.765573)" fill="none" stroke-linejoin="round" d="M -2.501322 -1.498502 L -0.500496 -0.000231868 L -2.499189 1.500069 " stroke="#000000" stroke-width="1" stroke-opacity="1" stroke-miterlimit="4"/><path stroke-linecap="butt" transform="matrix(-0.530581, -0.530581, 0.53033, -0.53033, 208.14632, 210.990454)" fill="none" stroke-linejoin="miter" d="M 0.0000518551 0.497547 L 32.496843 0.497547 " stroke="#000000" stroke-width="1" stroke-opacity="1" stroke-miterlimit="4"/><path stroke-linecap="round" transform="matrix(-0.530581, -0.530581, 0.53033, -0.53033, 190.903746, 193.217683)" fill="none" stroke-linejoin="round" d="M -2.499154 -1.501248 L -0.500314 -0.00232883 L -2.502835 1.500273 " stroke="#000000" stroke-width="1" stroke-opacity="1" stroke-miterlimit="4"/><path stroke-linecap="butt" transform="matrix(0.565592, 0.485246, -0.488356, 0.569217, 141.582242, 142.468349)" fill="none" stroke-linejoin="miter" d="M 0.00264113 0.499415 L 38.755199 0.499727 " stroke="#000000" stroke-width="1" stroke-opacity="1" stroke-miterlimit="4"/><path stroke-linecap="round" transform="matrix(0.565592, 0.485246, -0.488356, 0.569217, 163.539735, 161.80077)" fill="none" stroke-linejoin="round" d="M -2.49842 -1.50039 L -0.498721 -0.000306144 L -2.498733 1.498787 " stroke="#000000" stroke-width="1" stroke-opacity="1" stroke-miterlimit="4"/><path stroke-linecap="butt" transform="matrix(-0.482104, 0.581167, -0.57724, -0.478846, 212.591343, 141.494523)" fill="none" stroke-linejoin="miter" d="M 0.000425106 0.503008 L 36.261037 0.501433 " stroke="#000000" stroke-width="1" stroke-opacity="1" stroke-miterlimit="4"/><path stroke-linecap="round" transform="matrix(-0.482104, 0.581167, -0.57724, -0.478846, 194.580431, 162.618856)" fill="none" stroke-linejoin="round" d="M -2.502093 -1.499626 L -0.499161 0.00132638 L -2.496847 1.500591 " stroke="#000000" stroke-width="1" stroke-opacity="1" stroke-miterlimit="4"/></svg>