<svg xmlns="http://www.w3.org/2000/svg" xmlns:xlink="http://www.w3.org/1999/xlink" width="500" zoomAndPan="magnify" viewBox="0 0 375 374.999991" height="500" preserveAspectRatio="xMidYMid meet" version="1.0"><defs><clipPath id="36569b96ad"><path d="M 140 126 L 173 126 L 173 236 L 140 236 Z M 140 126 " clip-rule="nonzero"/></clipPath><clipPath id="380f49a4b1"><path d="M 140.511719 234.660156 L 147.714844 126.148438 L 176.152344 128.035156 L 168.949219 236.546875 Z M 140.511719 234.660156 " clip-rule="nonzero"/></clipPath><clipPath id="b87b4e83ca"><path d="M 140.511719 234.660156 L 147.714844 126.148438 L 176.152344 128.035156 L 168.949219 236.546875 Z M 140.511719 234.660156 " clip-rule="nonzero"/></clipPath><clipPath id="b82ae6e952"><path d="M 172 129 L 201 129 L 201 239 L 172 239 Z M 172 129 " clip-rule="nonzero"/></clipPath><clipPath id="de2dbacd41"><path d="M 200.753906 129.664062 L 200.355469 238.410156 L 171.855469 238.308594 L 172.253906 129.558594 Z M 200.753906 129.664062 " clip-rule="nonzero"/></clipPath><clipPath id="3fdd99d977"><path d="M 200.753906 129.664062 L 200.355469 238.410156 L 171.855469 238.308594 L 172.253906 129.558594 Z M 200.753906 129.664062 " clip-rule="nonzero"/></clipPath><clipPath id="7b8d297673"><path d="M 147.9375 176 L 161 176 L 161 198.664062 L 147.9375 198.664062 Z M 147.9375 176 " clip-rule="nonzero"/></clipPath><clipPath id="25af87222d"><path d="M 161 176 L 175 176 L 175 198.664062 L 161 198.664062 Z M 161 176 " clip-rule="nonzero"/></clipPath><clipPath id="0c5f3345b5"><path d="M 170 154.414062 L 195.9375 154.414062 L 195.9375 169 L 170 169 Z M 170 154.414062 " clip-rule="nonzero"/></clipPath><clipPath id="cee3fd4fa5"><path d="M 183 162 L 195.9375 162 L 195.9375 185 L 183 185 Z M 183 162 " clip-rule="nonzero"/></clipPath><clipPath id="b743afa083"><path d="M 105.785156 224.496094 L 140.285156 224.496094 L 140.285156 258.996094 L 105.785156 258.996094 Z M 105.785156 224.496094 " clip-rule="nonzero"/></clipPath><clipPath id="b7ee3f420b"><path d="M 202 217 L 237 217 L 237 252 L 202 252 Z M 202 217 " clip-rule="nonzero"/></clipPath><clipPath id="a8f8a4baaa"><path d="M 200.679688 218.746094 L 235.066406 215.964844 L 237.847656 250.355469 L 203.457031 253.132812 Z M 200.679688 218.746094 " clip-rule="nonzero"/></clipPath><clipPath id="a89ade4d07"><path d="M 200.679688 218.746094 L 235.066406 215.964844 L 237.847656 250.355469 L 203.457031 253.132812 Z M 200.679688 218.746094 " clip-rule="nonzero"/></clipPath><clipPath id="cf25c160f1"><path d="M 161.855469 109.144531 L 187.355469 109.144531 L 187.355469 134.644531 L 161.855469 134.644531 Z M 161.855469 109.144531 " clip-rule="nonzero"/></clipPath></defs><g clip-path="url(#36569b96ad)"><g clip-path="url(#380f49a4b1)"><g clip-path="url(#b87b4e83ca)"><path fill="#737373" d="M 149.550781 233.515625 C 149.390625 233.46875 149.234375 233.425781 149.082031 233.375 L 148.636719 233.207031 C 148.339844 233.113281 148.066406 232.960938 147.789062 232.851562 C 147.257812 232.570312 146.761719 232.28125 146.304688 231.941406 C 145.859375 231.589844 145.433594 231.226562 145.0625 230.808594 C 144.316406 229.976562 143.714844 229.019531 143.300781 227.902344 L 143.21875 227.691406 L 143.152344 227.476562 C 143.109375 227.332031 143.058594 227.183594 143.015625 227.035156 C 142.957031 226.734375 142.855469 226.421875 142.804688 226.097656 C 142.746094 225.777344 142.703125 225.445312 142.667969 225.09375 C 142.667969 225.09375 142.667969 225.089844 142.667969 225.085938 C 142.628906 224.671875 142.089844 224.53125 141.867188 224.878906 C 141.65625 225.207031 141.484375 225.5625 141.34375 225.933594 C 141.207031 226.304688 141.132812 226.691406 141.050781 227.085938 C 141.015625 227.285156 141.011719 227.484375 140.992188 227.6875 L 140.972656 227.988281 C 140.96875 228.089844 140.976562 228.191406 140.980469 228.292969 C 141.023438 229.929688 141.71875 231.5625 142.84375 232.800781 C 143.40625 233.425781 144.085938 233.933594 144.816406 234.335938 C 145.554688 234.730469 146.359375 234.976562 147.167969 235.097656 C 147.371094 235.121094 147.578125 235.128906 147.78125 235.140625 C 147.882812 235.144531 147.980469 235.15625 148.082031 235.15625 C 148.183594 235.152344 148.285156 235.144531 148.386719 235.136719 C 148.585938 235.121094 148.785156 235.117188 148.984375 235.085938 C 149.179688 235.054688 149.375 235.015625 149.566406 234.96875 C 149.875 234.890625 150.179688 234.785156 150.46875 234.660156 C 150.910156 234.460938 150.847656 233.8125 150.371094 233.714844 C 150.085938 233.65625 149.816406 233.59375 149.550781 233.515625 Z M 157.359375 128.398438 C 157.84375 128.367188 157.992188 127.730469 157.578125 127.476562 C 157.308594 127.3125 157.023438 127.171875 156.726562 127.050781 C 156.542969 126.976562 156.355469 126.914062 156.164062 126.859375 C 155.972656 126.804688 155.777344 126.773438 155.578125 126.730469 C 155.480469 126.710938 155.382812 126.6875 155.28125 126.671875 C 155.179688 126.65625 155.082031 126.652344 154.980469 126.644531 C 154.777344 126.628906 154.574219 126.613281 154.367188 126.605469 C 153.550781 126.621094 152.71875 126.761719 151.9375 127.050781 C 151.160156 127.355469 150.417969 127.769531 149.777344 128.3125 C 148.496094 129.390625 147.59375 130.917969 147.335938 132.535156 C 147.320312 132.632812 147.296875 132.734375 147.285156 132.832031 L 147.265625 133.136719 C 147.257812 133.339844 147.234375 133.539062 147.246094 133.742188 C 147.273438 134.140625 147.292969 134.535156 147.386719 134.921875 C 147.472656 135.308594 147.597656 135.683594 147.761719 136.035156 C 147.9375 136.410156 148.492188 136.339844 148.582031 135.9375 C 148.582031 135.933594 148.585938 135.929688 148.585938 135.925781 C 148.667969 135.585938 148.75 135.261719 148.855469 134.949219 C 148.945312 134.636719 149.085938 134.339844 149.1875 134.050781 C 149.25 133.910156 149.320312 133.769531 149.378906 133.632812 L 149.472656 133.425781 L 149.582031 133.230469 C 150.140625 132.175781 150.863281 131.308594 151.710938 130.582031 C 152.136719 130.214844 152.605469 129.914062 153.09375 129.621094 C 153.59375 129.34375 154.121094 129.121094 154.6875 128.917969 C 154.972656 128.84375 155.265625 128.726562 155.570312 128.675781 L 156.039062 128.570312 C 156.195312 128.535156 156.355469 128.515625 156.519531 128.488281 C 156.792969 128.449219 157.070312 128.421875 157.359375 128.398438 Z M 172.519531 182.695312 C 171.949219 191.300781 169.609375 199.730469 165.5625 207.75 C 161.648438 215.515625 156.128906 222.910156 149.160156 229.738281 C 148.632812 230.257812 147.785156 230.25 147.265625 229.726562 C 146.746094 229.199219 146.75 228.355469 147.277344 227.839844 C 160.960938 214.433594 168.761719 198.761719 169.839844 182.519531 C 170.929688 166.136719 165.164062 149.445312 153.167969 134.242188 C 152.710938 133.660156 152.8125 132.824219 153.394531 132.367188 C 153.980469 131.914062 154.824219 132.015625 155.28125 132.59375 C 161.386719 140.335938 165.957031 148.453125 168.859375 156.730469 C 171.863281 165.285156 173.09375 174.019531 172.519531 182.695312 " fill-opacity="1" fill-rule="nonzero"/></g></g></g><g clip-path="url(#b82ae6e952)"><g clip-path="url(#de2dbacd41)"><g clip-path="url(#3fdd99d977)"><path fill="#737373" d="M 191.808594 131.371094 C 191.96875 131.40625 192.125 131.441406 192.28125 131.484375 L 192.738281 131.621094 C 193.039062 131.695312 193.324219 131.832031 193.601562 131.925781 C 194.152344 132.167969 194.664062 132.429688 195.144531 132.738281 C 195.609375 133.0625 196.058594 133.398438 196.453125 133.792969 C 197.25 134.574219 197.910156 135.496094 198.394531 136.582031 L 198.488281 136.789062 L 198.570312 137 C 198.621094 137.140625 198.679688 137.285156 198.734375 137.429688 C 198.8125 137.726562 198.933594 138.03125 199 138.351562 C 199.082031 138.667969 199.144531 139 199.199219 139.34375 C 199.199219 139.347656 199.203125 139.351562 199.203125 139.355469 C 199.265625 139.761719 199.8125 139.871094 200.015625 139.511719 C 200.203125 139.167969 200.351562 138.804688 200.46875 138.421875 C 200.585938 138.046875 200.636719 137.65625 200.691406 137.257812 C 200.714844 137.054688 200.707031 136.855469 200.710938 136.652344 L 200.710938 136.347656 C 200.710938 136.25 200.695312 136.148438 200.683594 136.046875 C 200.539062 134.417969 199.746094 132.832031 198.542969 131.664062 C 197.945312 131.078125 197.230469 130.613281 196.476562 130.257812 C 195.714844 129.910156 194.898438 129.714844 194.082031 129.640625 C 193.878906 129.632812 193.671875 129.636719 193.46875 129.636719 C 193.367188 129.640625 193.269531 129.636719 193.167969 129.644531 C 193.066406 129.652344 192.964844 129.667969 192.867188 129.679688 C 192.667969 129.710938 192.46875 129.726562 192.273438 129.769531 C 192.078125 129.8125 191.886719 129.863281 191.699219 129.921875 C 191.394531 130.019531 191.097656 130.140625 190.820312 130.289062 C 190.386719 130.511719 190.492188 131.15625 190.972656 131.222656 C 191.261719 131.261719 191.535156 131.3125 191.808594 131.371094 Z M 190.585938 236.769531 C 190.105469 236.832031 189.996094 237.476562 190.425781 237.703125 C 190.703125 237.851562 191 237.972656 191.304688 238.074219 C 191.492188 238.136719 191.683594 238.1875 191.875 238.234375 C 192.070312 238.277344 192.269531 238.296875 192.46875 238.324219 C 192.570312 238.339844 192.667969 238.355469 192.769531 238.363281 C 192.871094 238.375 192.96875 238.371094 193.070312 238.371094 C 193.277344 238.375 193.480469 238.378906 193.683594 238.371094 C 194.5 238.308594 195.320312 238.117188 196.085938 237.777344 C 196.839844 237.425781 197.558594 236.964844 198.160156 236.382812 C 199.371094 235.226562 200.175781 233.644531 200.332031 232.015625 C 200.34375 231.914062 200.359375 231.816406 200.363281 231.714844 L 200.363281 231.410156 C 200.359375 231.207031 200.371094 231.007812 200.347656 230.808594 C 200.296875 230.40625 200.25 230.015625 200.132812 229.636719 C 200.023438 229.257812 199.875 228.890625 199.6875 228.546875 C 199.492188 228.183594 198.941406 228.289062 198.875 228.699219 C 198.875 228.699219 198.875 228.703125 198.875 228.707031 C 198.8125 229.054688 198.75 229.382812 198.667969 229.699219 C 198.59375 230.019531 198.472656 230.324219 198.390625 230.617188 C 198.339844 230.765625 198.277344 230.90625 198.226562 231.046875 L 198.144531 231.257812 L 198.046875 231.460938 C 197.554688 232.546875 196.886719 233.460938 196.085938 234.238281 C 195.6875 234.632812 195.234375 234.960938 194.765625 235.285156 C 194.289062 235.59375 193.773438 235.84375 193.222656 236.085938 C 192.941406 236.179688 192.65625 236.3125 192.355469 236.382812 L 191.898438 236.519531 C 191.742188 236.5625 191.582031 236.59375 191.421875 236.625 C 191.152344 236.683594 190.875 236.730469 190.585938 236.769531 Z M 172.0625 183.527344 C 172.09375 174.902344 173.902344 166.34375 177.4375 158.085938 C 180.855469 150.09375 185.902344 142.367188 192.429688 135.117188 C 192.921875 134.566406 193.773438 134.519531 194.324219 135.011719 C 194.875 135.503906 194.921875 136.34375 194.429688 136.894531 C 181.609375 151.132812 174.804688 167.257812 174.746094 183.539062 C 174.683594 199.953125 181.484375 216.253906 194.40625 230.679688 C 194.898438 231.230469 194.847656 232.070312 194.292969 232.5625 C 193.742188 233.050781 192.894531 233.003906 192.398438 232.453125 C 185.824219 225.109375 180.753906 217.292969 177.335938 209.214844 C 173.804688 200.867188 172.027344 192.222656 172.0625 183.527344 " fill-opacity="1" fill-rule="nonzero"/></g></g></g><g clip-path="url(#7b8d297673)"><path fill="#39382f" d="M 160.535156 184.132812 L 160.535156 198.65625 L 147.9375 191.394531 L 147.9375 176.875 Z M 160.535156 184.132812 " fill-opacity="1" fill-rule="nonzero"/></g><g clip-path="url(#25af87222d)"><path fill="#39382f" d="M 174.171875 176.875 L 174.171875 191.394531 L 161.574219 198.652344 L 161.574219 184.132812 Z M 174.171875 176.875 " fill-opacity="1" fill-rule="nonzero"/></g><path fill="#39382f" d="M 173.652344 175.976562 L 161.054688 183.238281 L 148.457031 175.976562 L 161.054688 168.71875 Z M 173.652344 175.976562 " fill-opacity="1" fill-rule="nonzero"/><path fill="#39382f" d="M 182.3125 169.839844 L 182.3125 184.355469 L 175.210938 180.261719 L 175.210938 175.976562 C 175.210938 175.976562 175.210938 175.960938 175.210938 175.953125 C 175.210938 175.945312 175.210938 175.898438 175.210938 175.871094 C 175.210938 175.855469 175.210938 175.839844 175.210938 175.828125 C 175.203125 175.800781 175.191406 175.773438 175.179688 175.746094 C 175.167969 175.726562 175.15625 175.707031 175.144531 175.691406 C 175.128906 175.667969 175.113281 175.644531 175.09375 175.625 L 175.054688 175.589844 C 175.039062 175.574219 175.019531 175.558594 175 175.546875 L 174.953125 175.527344 L 169.714844 172.511719 L 169.714844 162.578125 Z M 182.3125 169.839844 " fill-opacity="1" fill-rule="nonzero"/><g clip-path="url(#0c5f3345b5)"><path fill="#39382f" d="M 195.429688 161.683594 L 182.832031 168.941406 L 170.234375 161.683594 L 182.832031 154.421875 Z M 195.429688 161.683594 " fill-opacity="1" fill-rule="nonzero"/></g><g clip-path="url(#cee3fd4fa5)"><path fill="#39382f" d="M 195.945312 162.578125 L 195.945312 177.097656 L 183.351562 184.355469 L 183.351562 169.839844 Z M 195.945312 162.578125 " fill-opacity="1" fill-rule="nonzero"/></g><g clip-path="url(#b743afa083)"><path fill="#39382f" d="M 123.035156 224.496094 C 113.507812 224.496094 105.785156 232.21875 105.785156 241.746094 C 105.785156 251.273438 113.507812 258.996094 123.035156 258.996094 C 132.5625 258.996094 140.285156 251.273438 140.285156 241.746094 C 140.285156 232.21875 132.5625 224.496094 123.035156 224.496094 Z M 123.035156 230.558594 C 125.527344 230.558594 127.550781 232.949219 127.550781 235.898438 C 127.550781 238.847656 125.527344 241.234375 123.035156 241.234375 C 120.539062 241.234375 118.519531 238.847656 118.519531 235.898438 C 118.519531 232.949219 120.539062 230.558594 123.035156 230.558594 Z M 130.679688 251.582031 L 115.390625 251.582031 C 114.621094 251.582031 114 250.960938 114 250.195312 C 114 246.609375 118.046875 243.699219 123.035156 243.699219 C 128.023438 243.699219 132.066406 246.609375 132.066406 250.195312 C 132.066406 250.960938 131.445312 251.582031 130.679688 251.582031 Z M 130.679688 251.582031 " fill-opacity="1" fill-rule="nonzero"/></g><g clip-path="url(#b7ee3f420b)"><g clip-path="url(#a8f8a4baaa)"><g clip-path="url(#a89ade4d07)"><path fill="#39382f" d="M 217.875 217.355469 C 208.378906 218.121094 201.300781 226.441406 202.070312 235.9375 C 202.835938 245.433594 211.15625 252.511719 220.652344 251.742188 C 230.148438 250.976562 237.222656 242.65625 236.457031 233.160156 C 235.691406 223.664062 227.371094 216.589844 217.875 217.355469 Z M 218.363281 223.398438 C 220.847656 223.199219 223.058594 225.417969 223.292969 228.355469 C 223.53125 231.296875 221.707031 233.839844 219.222656 234.042969 C 216.734375 234.242188 214.527344 232.023438 214.289062 229.085938 C 214.050781 226.144531 215.875 223.601562 218.363281 223.398438 Z M 227.675781 243.738281 L 212.433594 244.972656 C 211.671875 245.03125 211 244.464844 210.9375 243.699219 C 210.648438 240.125 214.449219 236.898438 219.421875 236.496094 C 224.394531 236.09375 228.660156 238.667969 228.949219 242.242188 C 229.007812 243.007812 228.441406 243.679688 227.675781 243.738281 Z M 227.675781 243.738281 " fill-opacity="1" fill-rule="nonzero"/></g></g></g><g clip-path="url(#cf25c160f1)"><path fill="#2ecc71" d="M 187.355469 121.894531 C 187.355469 128.933594 181.644531 134.644531 174.605469 134.644531 C 167.566406 134.644531 161.855469 128.933594 161.855469 121.894531 C 161.855469 114.855469 167.566406 109.144531 174.605469 109.144531 C 181.644531 109.144531 187.355469 114.855469 187.355469 121.894531 Z M 187.355469 121.894531 " fill-opacity="1" fill-rule="evenodd"/></g><path fill="#ecf0f1" d="M 165.96875 122.175781 L 172.730469 128.9375 L 183.242188 118.421875 L 180.992188 116.164062 L 172.730469 124.433594 L 168.21875 119.921875 Z M 165.96875 122.175781 " fill-opacity="1" fill-rule="evenodd"/></svg>