<svg xmlns="http://www.w3.org/2000/svg" xmlns:xlink="http://www.w3.org/1999/xlink" width="500" zoomAndPan="magnify" viewBox="0 0 375 374.999991" height="500" preserveAspectRatio="xMidYMid meet" version="1.0"><defs><clipPath id="f996e4bb99"><path d="M 156 130 L 189 130 L 189 240 L 156 240 Z M 156 130 " clip-rule="nonzero"/></clipPath><clipPath id="4499b088c1"><path d="M 156.074219 238.871094 L 163.277344 130.359375 L 191.714844 132.246094 L 184.511719 240.757812 Z M 156.074219 238.871094 " clip-rule="nonzero"/></clipPath><clipPath id="df280aae13"><path d="M 156.074219 238.871094 L 163.277344 130.359375 L 191.714844 132.246094 L 184.511719 240.757812 Z M 156.074219 238.871094 " clip-rule="nonzero"/></clipPath><clipPath id="cc532ec52b"><path d="M 187 133 L 217 133 L 217 243 L 187 243 Z M 187 133 " clip-rule="nonzero"/></clipPath><clipPath id="be51fcd690"><path d="M 216.316406 133.875 L 215.917969 242.621094 L 187.417969 242.519531 L 187.816406 133.769531 Z M 216.316406 133.875 " clip-rule="nonzero"/></clipPath><clipPath id="8b1a32568d"><path d="M 216.316406 133.875 L 215.917969 242.621094 L 187.417969 242.519531 L 187.816406 133.769531 Z M 216.316406 133.875 " clip-rule="nonzero"/></clipPath><clipPath id="3853e4eacc"><path d="M 163.5 181 L 177 181 L 177 202.871094 L 163.5 202.871094 Z M 163.5 181 " clip-rule="nonzero"/></clipPath><clipPath id="4b0bf84dbc"><path d="M 177 181 L 190 181 L 190 202.871094 L 177 202.871094 Z M 177 181 " clip-rule="nonzero"/></clipPath><clipPath id="218b7c1373"><path d="M 185 158.621094 L 211 158.621094 L 211 174 L 185 174 Z M 185 158.621094 " clip-rule="nonzero"/></clipPath><clipPath id="f9b75a6ab7"><path d="M 198 166 L 211.5 166 L 211.5 189 L 198 189 Z M 198 166 " clip-rule="nonzero"/></clipPath><clipPath id="70b2d67545"><path d="M 121.347656 228.707031 L 155.847656 228.707031 L 155.847656 263.207031 L 121.347656 263.207031 Z M 121.347656 228.707031 " clip-rule="nonzero"/></clipPath><clipPath id="233d50f58e"><path d="M 217 221 L 253 221 L 253 257 L 217 257 Z M 217 221 " clip-rule="nonzero"/></clipPath><clipPath id="2e0e5efe80"><path d="M 216.242188 222.953125 L 250.628906 220.175781 L 253.410156 254.566406 L 219.019531 257.34375 Z M 216.242188 222.953125 " clip-rule="nonzero"/></clipPath><clipPath id="7ee665c1f5"><path d="M 216.242188 222.953125 L 250.628906 220.175781 L 253.410156 254.566406 L 219.019531 257.34375 Z M 216.242188 222.953125 " clip-rule="nonzero"/></clipPath><clipPath id="2387006ffb"><path d="M 218 113.511719 L 253.554688 113.511719 L 253.554688 132 L 218 132 Z M 218 113.511719 " clip-rule="nonzero"/></clipPath><clipPath id="8f7dcf0da8"><path d="M 235 122 L 253.554688 122 L 253.554688 154 L 235 154 Z M 235 122 " clip-rule="nonzero"/></clipPath><clipPath id="c9f1686653"><path d="M 217.554688 113.511719 L 253.554688 113.511719 L 253.554688 154.011719 L 217.554688 154.011719 Z M 217.554688 113.511719 " clip-rule="nonzero"/></clipPath><clipPath id="4143b50231"><path d="M 127.320312 234.789062 L 149.820312 234.789062 L 149.820312 257.289062 L 127.320312 257.289062 Z M 127.320312 234.789062 " clip-rule="nonzero"/></clipPath></defs><g clip-path="url(#f996e4bb99)"><g clip-path="url(#4499b088c1)"><g clip-path="url(#df280aae13)"><path fill="#737373" d="M 165.113281 237.726562 C 164.953125 237.679688 164.796875 237.636719 164.644531 237.585938 L 164.199219 237.417969 C 163.902344 237.324219 163.628906 237.171875 163.355469 237.0625 C 162.820312 236.78125 162.324219 236.492188 161.867188 236.152344 C 161.421875 235.800781 160.996094 235.4375 160.625 235.019531 C 159.878906 234.1875 159.277344 233.226562 158.863281 232.113281 L 158.78125 231.902344 L 158.714844 231.6875 C 158.671875 231.539062 158.621094 231.394531 158.578125 231.246094 C 158.519531 230.945312 158.417969 230.632812 158.367188 230.308594 C 158.308594 229.988281 158.265625 229.652344 158.230469 229.304688 C 158.230469 229.300781 158.230469 229.296875 158.230469 229.296875 C 158.195312 228.882812 157.652344 228.738281 157.429688 229.089844 C 157.21875 229.417969 157.046875 229.773438 156.90625 230.144531 C 156.769531 230.515625 156.695312 230.902344 156.613281 231.296875 C 156.578125 231.496094 156.574219 231.695312 156.554688 231.894531 L 156.535156 232.199219 C 156.53125 232.300781 156.539062 232.402344 156.542969 232.503906 C 156.585938 234.136719 157.28125 235.773438 158.40625 237.011719 C 158.96875 237.636719 159.652344 238.144531 160.378906 238.546875 C 161.117188 238.9375 161.921875 239.1875 162.730469 239.308594 C 162.933594 239.332031 163.140625 239.339844 163.34375 239.351562 C 163.445312 239.355469 163.542969 239.367188 163.644531 239.367188 C 163.746094 239.363281 163.847656 239.355469 163.949219 239.347656 C 164.148438 239.332031 164.347656 239.324219 164.546875 239.296875 C 164.742188 239.265625 164.9375 239.226562 165.128906 239.179688 C 165.4375 239.097656 165.742188 238.996094 166.03125 238.871094 C 166.472656 238.671875 166.410156 238.023438 165.933594 237.925781 C 165.648438 237.867188 165.378906 237.800781 165.113281 237.726562 Z M 172.921875 132.609375 C 173.40625 132.578125 173.554688 131.941406 173.140625 131.6875 C 172.875 131.523438 172.585938 131.382812 172.289062 131.261719 C 172.105469 131.1875 171.917969 131.125 171.726562 131.070312 C 171.535156 131.015625 171.339844 130.980469 171.144531 130.9375 C 171.042969 130.921875 170.945312 130.898438 170.84375 130.882812 C 170.742188 130.867188 170.644531 130.863281 170.542969 130.855469 C 170.339844 130.839844 170.136719 130.820312 169.929688 130.816406 C 169.113281 130.832031 168.28125 130.96875 167.5 131.261719 C 166.722656 131.566406 165.980469 131.976562 165.339844 132.523438 C 164.058594 133.601562 163.15625 135.128906 162.898438 136.746094 C 162.882812 136.84375 162.859375 136.941406 162.847656 137.042969 L 162.828125 137.347656 C 162.820312 137.550781 162.796875 137.75 162.808594 137.949219 C 162.835938 138.351562 162.855469 138.746094 162.949219 139.128906 C 163.035156 139.515625 163.160156 139.894531 163.324219 140.246094 C 163.5 140.621094 164.054688 140.550781 164.144531 140.148438 C 164.148438 140.144531 164.148438 140.140625 164.148438 140.136719 C 164.230469 139.796875 164.3125 139.472656 164.417969 139.160156 C 164.507812 138.847656 164.648438 138.550781 164.75 138.261719 C 164.8125 138.117188 164.882812 137.980469 164.941406 137.84375 L 165.035156 137.636719 L 165.148438 137.441406 C 165.703125 136.386719 166.425781 135.515625 167.273438 134.792969 C 167.699219 134.425781 168.167969 134.121094 168.65625 133.832031 C 169.15625 133.554688 169.683594 133.332031 170.25 133.125 C 170.535156 133.054688 170.828125 132.9375 171.132812 132.886719 L 171.601562 132.777344 C 171.757812 132.746094 171.917969 132.722656 172.082031 132.699219 C 172.355469 132.660156 172.632812 132.632812 172.921875 132.609375 Z M 188.082031 186.90625 C 187.511719 195.511719 185.171875 203.941406 181.125 211.960938 C 177.210938 219.722656 171.695312 227.121094 164.726562 233.949219 C 164.195312 234.46875 163.347656 234.460938 162.828125 233.9375 C 162.308594 233.410156 162.3125 232.566406 162.839844 232.050781 C 176.523438 218.644531 184.328125 202.972656 185.402344 186.730469 C 186.492188 170.347656 180.726562 153.652344 168.730469 138.449219 C 168.273438 137.871094 168.375 137.03125 168.960938 136.578125 C 169.542969 136.125 170.386719 136.226562 170.84375 136.804688 C 176.949219 144.542969 181.519531 152.664062 184.421875 160.941406 C 187.425781 169.492188 188.65625 178.230469 188.082031 186.90625 " fill-opacity="1" fill-rule="nonzero"/></g></g></g><g clip-path="url(#cc532ec52b)"><g clip-path="url(#be51fcd690)"><g clip-path="url(#8b1a32568d)"><path fill="#737373" d="M 207.371094 135.582031 C 207.53125 135.617188 207.6875 135.648438 207.84375 135.695312 L 208.300781 135.832031 C 208.601562 135.90625 208.886719 136.042969 209.164062 136.132812 C 209.714844 136.378906 210.226562 136.636719 210.707031 136.949219 C 211.171875 137.273438 211.621094 137.609375 212.019531 138.003906 C 212.8125 138.785156 213.472656 139.707031 213.957031 140.792969 L 214.050781 141 L 214.132812 141.210938 C 214.183594 141.351562 214.242188 141.496094 214.296875 141.640625 C 214.375 141.9375 214.496094 142.242188 214.5625 142.5625 C 214.644531 142.878906 214.707031 143.210938 214.761719 143.554688 C 214.761719 143.558594 214.765625 143.5625 214.765625 143.566406 C 214.828125 143.972656 215.375 144.082031 215.578125 143.722656 C 215.765625 143.378906 215.914062 143.011719 216.03125 142.632812 C 216.148438 142.257812 216.199219 141.867188 216.253906 141.464844 C 216.277344 141.265625 216.269531 141.066406 216.273438 140.863281 L 216.273438 140.558594 C 216.273438 140.457031 216.257812 140.359375 216.246094 140.257812 C 216.101562 138.628906 215.308594 137.039062 214.105469 135.875 C 213.507812 135.285156 212.792969 134.824219 212.042969 134.464844 C 211.277344 134.121094 210.460938 133.921875 209.644531 133.851562 C 209.441406 133.84375 209.234375 133.847656 209.03125 133.847656 C 208.929688 133.851562 208.832031 133.847656 208.730469 133.855469 C 208.628906 133.863281 208.527344 133.878906 208.429688 133.890625 C 208.230469 133.921875 208.03125 133.9375 207.835938 133.980469 C 207.640625 134.023438 207.449219 134.070312 207.261719 134.132812 C 206.957031 134.230469 206.660156 134.351562 206.382812 134.496094 C 205.949219 134.722656 206.054688 135.367188 206.535156 135.433594 C 206.824219 135.472656 207.101562 135.523438 207.371094 135.582031 Z M 206.148438 240.980469 C 205.667969 241.042969 205.558594 241.6875 205.988281 241.914062 C 206.265625 242.0625 206.5625 242.183594 206.867188 242.285156 C 207.054688 242.347656 207.246094 242.398438 207.4375 242.445312 C 207.632812 242.488281 207.832031 242.503906 208.03125 242.535156 C 208.132812 242.550781 208.230469 242.566406 208.332031 242.574219 C 208.433594 242.582031 208.535156 242.582031 208.636719 242.582031 C 208.839844 242.585938 209.042969 242.589844 209.25 242.582031 C 210.0625 242.515625 210.882812 242.328125 211.648438 241.984375 C 212.402344 241.636719 213.121094 241.175781 213.722656 240.59375 C 214.933594 239.4375 215.738281 237.855469 215.894531 236.226562 C 215.90625 236.125 215.921875 236.027344 215.925781 235.925781 L 215.925781 235.617188 C 215.921875 235.417969 215.933594 235.21875 215.910156 235.015625 C 215.859375 234.617188 215.8125 234.226562 215.699219 233.847656 C 215.585938 233.46875 215.4375 233.101562 215.25 232.757812 C 215.054688 232.394531 214.503906 232.5 214.4375 232.910156 C 214.4375 232.910156 214.4375 232.914062 214.4375 232.917969 C 214.375 233.261719 214.3125 233.59375 214.230469 233.910156 C 214.15625 234.226562 214.035156 234.53125 213.953125 234.828125 C 213.902344 234.972656 213.839844 235.117188 213.789062 235.257812 L 213.707031 235.46875 L 213.609375 235.671875 C 213.117188 236.757812 212.449219 237.671875 211.648438 238.449219 C 211.25 238.84375 210.800781 239.171875 210.328125 239.492188 C 209.851562 239.800781 209.335938 240.054688 208.785156 240.296875 C 208.503906 240.386719 208.21875 240.523438 207.917969 240.59375 L 207.460938 240.730469 C 207.304688 240.773438 207.144531 240.804688 206.984375 240.835938 C 206.714844 240.894531 206.4375 240.941406 206.148438 240.980469 Z M 187.625 187.738281 C 187.65625 179.113281 189.464844 170.554688 193 162.296875 C 196.417969 154.304688 201.464844 146.578125 207.992188 139.324219 C 208.484375 138.777344 209.335938 138.730469 209.886719 139.222656 C 210.4375 139.710938 210.488281 140.554688 209.992188 141.105469 C 197.171875 155.339844 190.367188 171.46875 190.308594 187.746094 C 190.246094 204.164062 197.046875 220.464844 209.96875 234.890625 C 210.460938 235.4375 210.410156 236.28125 209.855469 236.773438 C 209.304688 237.261719 208.457031 237.214844 207.960938 236.664062 C 201.386719 229.320312 196.316406 221.5 192.898438 213.425781 C 189.367188 205.074219 187.589844 196.433594 187.625 187.738281 " fill-opacity="1" fill-rule="nonzero"/></g></g></g><g clip-path="url(#3853e4eacc)"><path fill="#39382f" d="M 176.097656 188.34375 L 176.097656 202.863281 L 163.5 195.601562 L 163.5 181.085938 Z M 176.097656 188.34375 " fill-opacity="1" fill-rule="nonzero"/></g><g clip-path="url(#4b0bf84dbc)"><path fill="#39382f" d="M 189.734375 181.085938 L 189.734375 195.601562 L 177.136719 202.863281 L 177.136719 188.34375 Z M 189.734375 181.085938 " fill-opacity="1" fill-rule="nonzero"/></g><path fill="#39382f" d="M 189.214844 180.1875 L 176.617188 187.445312 L 164.019531 180.1875 L 176.617188 172.929688 Z M 189.214844 180.1875 " fill-opacity="1" fill-rule="nonzero"/><path fill="#39382f" d="M 197.875 174.046875 L 197.875 188.566406 L 190.773438 184.472656 L 190.773438 180.1875 C 190.773438 180.1875 190.773438 180.167969 190.773438 180.160156 C 190.773438 180.152344 190.773438 180.105469 190.773438 180.082031 C 190.773438 180.066406 190.773438 180.050781 190.773438 180.039062 C 190.765625 180.007812 190.753906 179.984375 190.742188 179.957031 C 190.730469 179.9375 190.71875 179.917969 190.707031 179.898438 C 190.691406 179.878906 190.675781 179.855469 190.65625 179.835938 L 190.617188 179.800781 C 190.601562 179.785156 190.582031 179.769531 190.5625 179.757812 L 190.515625 179.738281 L 185.277344 176.722656 L 185.277344 166.789062 Z M 197.875 174.046875 " fill-opacity="1" fill-rule="nonzero"/><g clip-path="url(#218b7c1373)"><path fill="#39382f" d="M 210.992188 165.890625 L 198.394531 173.152344 L 185.796875 165.890625 L 198.394531 158.632812 Z M 210.992188 165.890625 " fill-opacity="1" fill-rule="nonzero"/></g><g clip-path="url(#f9b75a6ab7)"><path fill="#39382f" d="M 211.507812 166.789062 L 211.507812 181.308594 L 198.914062 188.566406 L 198.914062 174.046875 Z M 211.507812 166.789062 " fill-opacity="1" fill-rule="nonzero"/></g><g clip-path="url(#70b2d67545)"><path fill="#39382f" d="M 138.597656 228.707031 C 129.070312 228.707031 121.347656 236.429688 121.347656 245.957031 C 121.347656 255.484375 129.070312 263.207031 138.597656 263.207031 C 148.125 263.207031 155.847656 255.484375 155.847656 245.957031 C 155.847656 236.429688 148.125 228.707031 138.597656 228.707031 Z M 138.597656 234.769531 C 141.09375 234.769531 143.113281 237.160156 143.113281 240.109375 C 143.113281 243.054688 141.09375 245.445312 138.597656 245.445312 C 136.101562 245.445312 134.082031 243.054688 134.082031 240.109375 C 134.082031 237.160156 136.101562 234.769531 138.597656 234.769531 Z M 146.242188 255.792969 L 130.953125 255.792969 C 130.183594 255.792969 129.5625 255.171875 129.5625 254.40625 C 129.5625 250.816406 133.609375 247.910156 138.597656 247.910156 C 143.585938 247.910156 147.632812 250.816406 147.632812 254.40625 C 147.632812 255.171875 147.007812 255.792969 146.242188 255.792969 Z M 146.242188 255.792969 " fill-opacity="1" fill-rule="nonzero"/></g><g clip-path="url(#233d50f58e)"><g clip-path="url(#2e0e5efe80)"><g clip-path="url(#7ee665c1f5)"><path fill="#39382f" d="M 233.4375 221.566406 C 223.941406 222.332031 216.863281 230.652344 217.632812 240.148438 C 218.398438 249.644531 226.71875 256.722656 236.214844 255.953125 C 245.710938 255.1875 252.785156 246.867188 252.019531 237.371094 C 251.253906 227.875 242.933594 220.796875 233.4375 221.566406 Z M 233.925781 227.609375 C 236.410156 227.410156 238.621094 229.628906 238.855469 232.566406 C 239.09375 235.507812 237.269531 238.050781 234.785156 238.25 C 232.296875 238.453125 230.089844 236.234375 229.851562 233.296875 C 229.617188 230.355469 231.4375 227.8125 233.925781 227.609375 Z M 243.238281 247.949219 L 227.996094 249.179688 C 227.234375 249.242188 226.5625 248.671875 226.5 247.910156 C 226.214844 244.332031 230.011719 241.109375 234.984375 240.707031 C 239.957031 240.304688 244.222656 242.878906 244.511719 246.453125 C 244.570312 247.21875 244.003906 247.886719 243.238281 247.949219 Z M 243.238281 247.949219 " fill-opacity="1" fill-rule="nonzero"/></g></g></g><g clip-path="url(#2387006ffb)"><path fill="#ff1616" d="M 235.554688 113.953125 L 218.027344 122.738281 L 235.554688 131.523438 L 253.085938 122.738281 Z M 235.554688 113.953125 " fill-opacity="1" fill-rule="nonzero"/></g><g clip-path="url(#8f7dcf0da8)"><path fill="#ff5757" d="M 235.554688 131.523438 L 235.554688 153.484375 L 253.085938 144.699219 L 253.085938 122.738281 Z M 235.554688 131.523438 " fill-opacity="1" fill-rule="nonzero"/></g><path fill="#560216" d="M 235.554688 131.523438 L 235.554688 153.484375 L 218.027344 144.699219 L 218.027344 122.738281 Z M 235.554688 131.523438 " fill-opacity="1" fill-rule="nonzero"/><g clip-path="url(#c9f1686653)"><path stroke-linecap="butt" transform="matrix(0.876497, 0, 0, 0.878525, 209.261124, 111.877032)" fill="none" stroke-linejoin="miter" d="M 29.998478 2.376497 L 10.00143 12.37639 L 10.00143 37.373901 L 29.998478 47.373794 L 49.999982 37.373901 L 49.999982 12.37639 Z M 29.998478 2.376497 " stroke="#4d4d4d" stroke-width="1" stroke-opacity="1" stroke-miterlimit="4"/></g><g clip-path="url(#4143b50231)"><path fill="#7d9b76" d="M 138.570312 234.789062 C 132.359375 234.789062 127.320312 239.828125 127.320312 246.039062 C 127.320312 252.253906 132.359375 257.289062 138.570312 257.289062 C 144.785156 257.289062 149.820312 252.253906 149.820312 246.039062 C 149.820312 239.828125 144.785156 234.789062 138.570312 234.789062 " fill-opacity="1" fill-rule="nonzero"/></g></svg>